<svg xmlns="http://www.w3.org/2000/svg" display="none">
    <symbol id="mail" viewBox="0 0 550.795 550.795">
        <g>
            <path d="M501.613,491.782c12.381,0,23.109-4.088,32.229-12.16L377.793,323.567c-3.744,2.681-7.373,5.288-10.801,7.767
			c-11.678,8.604-21.156,15.318-28.434,20.129c-7.277,4.822-16.959,9.737-29.045,14.755c-12.094,5.024-23.361,7.528-33.813,7.528
			h-0.306h-0.306c-10.453,0-21.72-2.503-33.813-7.528c-12.093-5.018-21.775-9.933-29.045-14.755
			c-7.277-4.811-16.75-11.524-28.434-20.129c-3.256-2.387-6.867-5.006-10.771-7.809L16.946,479.622
			c9.119,8.072,19.854,12.16,32.234,12.16H501.613z"/>
            <path d="M31.047,225.299C19.37,217.514,9.015,208.598,0,198.555V435.98l137.541-137.541
			C110.025,279.229,74.572,254.877,31.047,225.299z"/>
            <path d="M520.059,225.299c-41.865,28.336-77.447,52.73-106.75,73.195l137.486,137.492V198.555
			C541.98,208.396,531.736,217.306,520.059,225.299z"/>
            <path d="M501.613,59.013H49.181c-15.784,0-27.919,5.33-36.42,15.979C4.253,85.646,0.006,98.97,0.006,114.949
			c0,12.907,5.636,26.892,16.903,41.959c11.267,15.061,23.256,26.891,35.961,35.496c6.965,4.921,27.969,19.523,63.012,43.801
			c18.917,13.109,35.368,24.535,49.505,34.395c12.05,8.396,22.442,15.667,31.022,21.701c0.985,0.691,2.534,1.799,4.59,3.269
			c2.215,1.591,5.018,3.61,8.476,6.107c6.659,4.816,12.191,8.709,16.597,11.683c4.4,2.975,9.731,6.298,15.985,9.988
			c6.249,3.685,12.143,6.456,17.675,8.299c5.533,1.842,10.655,2.766,15.367,2.766h0.306h0.306c4.711,0,9.834-0.924,15.368-2.766
			c5.531-1.843,11.42-4.608,17.674-8.299c6.248-3.69,11.572-7.02,15.986-9.988c4.406-2.974,9.938-6.866,16.598-11.683
			c3.451-2.497,6.254-4.517,8.469-6.102c2.057-1.476,3.605-2.577,4.596-3.274c6.684-4.651,17.1-11.892,31.104-21.616
			c25.482-17.705,63.01-43.764,112.742-78.281c14.957-10.447,27.453-23.054,37.496-37.803c10.025-14.749,15.051-30.22,15.051-46.408
			c0-13.525-4.873-25.098-14.598-34.737C526.461,63.829,514.932,59.013,501.613,59.013z"/>
        </g>
    </symbol>

    <symbol id="phone" viewBox="0 0 512.006 512.006">
        <g>
            <path d="M502.05,407.127l-56.761-37.844L394.83,335.65c-9.738-6.479-22.825-4.355-30.014,4.873l-31.223,40.139
				c-6.707,8.71-18.772,11.213-28.39,5.888c-21.186-11.785-46.239-22.881-101.517-78.23c-55.278-55.349-66.445-80.331-78.23-101.517
				c-5.325-9.618-2.822-21.683,5.888-28.389l40.139-31.223c9.227-7.188,11.352-20.275,4.873-30.014l-32.6-48.905L104.879,9.956
				C98.262,0.03,85.016-2.95,74.786,3.185L29.95,30.083C17.833,37.222,8.926,48.75,5.074,62.277
				C-7.187,106.98-9.659,205.593,148.381,363.633s256.644,155.56,301.347,143.298c13.527-3.851,25.055-12.758,32.194-24.876
				l26.898-44.835C514.956,426.989,511.976,413.744,502.05,407.127z"/>
            <path d="M291.309,79.447c82.842,0.092,149.977,67.226,150.069,150.069c0,4.875,3.952,8.828,8.828,8.828
				c4.875,0,8.828-3.952,8.828-8.828c-0.102-92.589-75.135-167.622-167.724-167.724c-4.875,0-8.828,3.952-8.828,8.828
				C282.481,75.494,286.433,79.447,291.309,79.447z"/>
            <path d="M291.309,132.412c53.603,0.063,97.04,43.501,97.103,97.103c0,4.875,3.952,8.828,8.828,8.828
				c4.875,0,8.828-3.952,8.828-8.828c-0.073-63.349-51.409-114.686-114.759-114.759c-4.875,0-8.828,3.952-8.828,8.828
				C282.481,128.46,286.433,132.412,291.309,132.412z"/>
            <path d="M291.309,185.378c24.365,0.029,44.109,19.773,44.138,44.138c0,4.875,3.952,8.828,8.828,8.828
				c4.875,0,8.828-3.952,8.828-8.828c-0.039-34.111-27.682-61.754-61.793-61.793c-4.875,0-8.828,3.952-8.828,8.828
				C282.481,181.426,286.433,185.378,291.309,185.378z"/>
        </g>
    </symbol>

    <symbol id="icon1" viewBox="0 0 60 60">
        <g>
            <path d="M6,11 L12,11 C12.5522847,11 13,10.5522847 13,10 C13,9.44771525 12.5522847,9 12,9 L6,9 C5.44771525,9 5,9.44771525 5,10 C5,10.5522847 5.44771525,11 6,11 Z"
                  id="Shape"/>
            <path d="M17,11 L26,11 C26.5522847,11 27,10.5522847 27,10 C27,9.44771525 26.5522847,9 26,9 L17,9 C16.4477153,9 16,9.44771525 16,10 C16,10.5522847 16.4477153,11 17,11 Z"
                  id="Shape"/>
            <path d="M6,22 L38,22 C38.5522847,22 39,21.5522847 39,21 C39,20.4477153 38.5522847,20 38,20 L6,20 C5.44771525,20 5,20.4477153 5,21 C5,21.5522847 5.44771525,22 6,22 Z"
                  id="Shape"/>
            <path d="M6,26 L20,26 C20.5522847,26 21,25.5522847 21,25 C21,24.4477153 20.5522847,24 20,24 L6,24 C5.44771525,24 5,24.4477153 5,25 C5,25.5522847 5.44771525,26 6,26 Z"
                  id="Shape"/>
            <path d="M6,34 L20,34 C20.5522847,34 21,33.5522847 21,33 C21,32.4477153 20.5522847,32 20,32 L6,32 C5.44771525,32 5,32.4477153 5,33 C5,33.5522847 5.44771525,34 6,34 Z"
                  id="Shape"/>
            <path d="M6,42 L20,42 C20.5522847,42 21,41.5522847 21,41 C21,40.4477153 20.5522847,40 20,40 L6,40 C5.44771525,40 5,40.4477153 5,41 C5,41.5522847 5.44771525,42 6,42 Z"
                  id="Shape"/>
            <path d="M6,50 L20,50 C20.5522847,50 21,49.5522847 21,49 C21,48.4477153 20.5522847,48 20,48 L6,48 C5.44771525,48 5,48.4477153 5,49 C5,49.5522847 5.44771525,50 6,50 Z"
                  id="Shape"/>
            <path d="M59.4,29.13 L48,24.207 L48,3 C48,1.34314575 46.6568542,1.01453063e-16 45,0 L7,0 C5.34314575,-1.01453063e-16 4,1.34314575 4,3 L4,4 L3,4 C1.34314575,4 2.02906125e-16,5.34314575 0,7 L0,57 C2.02906125e-16,58.6568542 1.34314575,60 3,60 L41,60 C41.8090309,59.9981857 42.5828431,59.6688195 43.145,59.087 L43.965,59.67 C44.5848485,60.1100206 45.4151515,60.1100206 46.035,59.67 L55.71,52.783 C58.3920283,50.8794247 59.9897805,47.7978858 60,44.509 L60,30.048 C60.000591,29.649839 59.7649212,29.2892641 59.4,29.13 Z M6,3 C6,2.44771525 6.44771525,2 7,2 L45,2 C45.5522847,2 46,2.44771525 46,3 L46,23.343 L45.4,23.082 C45.1472508,22.9730007 44.8607492,22.9730007 44.608,23.082 L44.008,23.343 L44.008,17 C44.008,16.978 43.997,16.957 43.995,16.935 C43.990041,16.8512265 43.9738978,16.7684928 43.947,16.689 C43.94,16.666 43.941,16.642 43.932,16.62 C43.923,16.598 43.916,16.598 43.911,16.586 C43.8623283,16.4771943 43.7945961,16.3779666 43.711,16.293 L31.711,4.293 C31.6260334,4.20940395 31.5268057,4.14167171 31.418,4.093 C31.405,4.087 31.396,4.077 31.384,4.072 C31.372,4.067 31.338,4.064 31.316,4.057 C31.2354177,4.03015853 31.1517441,4.01369264 31.067,4.008 C31.042,4.011 31.022,4 31,4 L6,4 L6,3 Z M32,7.414 L40.586,16 L33,16 C32.4477153,16 32,15.5522847 32,15 L32,7.414 Z M41,58 L3,58 C2.44771525,58 2,57.5522847 2,57 L2,7 C2,6.44771525 2.44771525,6 3,6 L30,6 L30,15 C30,16.6568542 31.3431458,18 33,18 L42,18 L42,24.207 L38.781,25.6 C38.9191601,25.4301844 38.9962835,25.2188875 39,25 C39,24.4477153 38.5522847,24 38,24 L24,24 C23.4477153,24 23,24.4477153 23,25 C23,25.5522847 23.4477153,26 24,26 L37.849,26 L33.219,28 L6,28 C5.44771525,28 5,28.4477153 5,29 C5,29.5522847 5.44771525,30 6,30 L30.007,30 C30.007,30.016 30,30.031 30,30.048 L30,32 L24,32 C23.4477153,32 23,32.4477153 23,33 C23,33.5522847 23.4477153,34 24,34 L30,34 L30,36 L6,36 C5.44771525,36 5,36.4477153 5,37 C5,37.5522847 5.44771525,38 6,38 L30,38 L30,40 L24,40 C23.4477153,40 23,40.4477153 23,41 C23,41.5522847 23.4477153,42 24,42 L30,42 L30,44 L6,44 C5.44771525,44 5,44.4477153 5,45 C5,45.5522847 5.44771525,46 6,46 L30.125,46 C30.2244326,46.682295 30.3939971,47.3525102 30.631,48 L24,48 C23.4477153,48 23,48.4477153 23,49 C23,49.5522847 23.4477153,50 24,50 L31.641,50 C32.1135779,50.7357522 32.6785144,51.4078957 33.322,52 L6,52 C5.44771525,52 5,52.4477153 5,53 C5,53.5522847 5.44771525,54 6,54 L36,54 L41.448,57.878 C41.310655,57.9541131 41.1569731,57.995964 41,58 Z M58,44.509 C57.9902639,47.1505786 56.7057822,49.624947 54.551,51.153 L45,57.952 L35.449,51.152 C33.2945042,49.624152 32.0100584,47.1502252 32,44.509 L32,30.709 L33.81,29.927 L33.829,29.919 L45,25.089 L58,30.705 L58,44.509 Z"
                  id="Shape"/>
            <path d="M44.6,27.439 L34.6,31.759 C34.2350788,31.9182641 33.999409,32.278839 34,32.677 L34,44.509 C34.009086,46.503312 34.9803344,48.3705817 36.608,49.523 L44.42,55.084 C44.7671643,55.331178 45.2328357,55.331178 45.58,55.084 L53.392,49.523 C55.0194082,48.3703573 55.9905824,46.5032302 56,44.509 L56,32.677 C56.000591,32.278839 55.7649212,31.9182641 55.4,31.759 L45.4,27.439 C45.1449495,27.3276869 44.8550505,27.3276869 44.6,27.439 Z M54,33.339 L54,44.509 C53.9926973,45.8587211 53.3337961,47.1217704 52.231,47.9 L45,53.042 L37.769,47.894 C36.6675346,47.1173365 36.0087381,45.8567225 36,44.509 L36,33.334 L45,29.447 L54,33.339 Z"
                  id="Shape"/>
            <path d="M39.6,42.2 C39.3141875,41.9856406 38.9357266,41.9400436 38.6071797,42.0803848 C38.2786328,42.2207259 38.0499141,42.5256842 38.0071797,42.8803848 C37.9644453,43.2350853 38.1141875,43.5856406 38.4,43.8 L42.4,46.8 C42.8320438,47.1242308 43.4434866,47.0467489 43.781,46.625 L51.781,36.625 C52.126178,36.1936656 52.0563344,35.564178 51.625,35.219 C51.1936656,34.873822 50.564178,34.9436656 50.219,35.375 L42.825,44.619 L39.6,42.2 Z"
                  id="Shape"/>
        </g>
    </symbol>

    <symbol id="icon2" viewBox="0 0 512.002 512.002">
        <g>
            <path d="M256.102,346.442c-6.105-4.624-13.603-6.152-20.597-4.848c-1.099-6.627-4.627-12.487-10.003-16.559   c-5.571-4.219-12.449-6.015-19.372-5.06c-1.715,0.237-3.381,0.637-4.983,1.188c-1.518-5.205-4.655-9.985-9.3-13.503   c-7.651-5.795-17.487-6.722-25.779-3.312c-1.651-4.969-4.752-9.325-9.016-12.555c-5.57-4.219-12.452-6.014-19.372-5.06   c-5.613,0.775-10.707,3.285-14.683,7.176l-27.452-1.825l16.826-136.683l30.15,2.049c0.171,0.011,0.341,0.017,0.51,0.017   c2.798,0,5.383-1.564,6.672-4.08l11.299-22.047c2.863-5.581,9.326-8.418,15.369-6.745l16.78,4.64   c3.989,1.101,8.123-1.238,9.228-5.23c1.104-3.992-1.238-8.124-5.23-9.228l-16.777-4.639c-12.86-3.56-26.62,2.476-32.715,14.357   l-9.047,17.653l-24.402-1.658l0.578-4.696c1.848-15.009-8.859-28.722-23.868-30.57L33.13,98.114   c-4.118-0.504-7.854,2.417-8.36,6.527c-0.506,4.111,2.417,7.854,6.527,8.36l57.788,7.114c3.294,0.405,6.233,2.069,8.275,4.685   c2.042,2.616,2.944,5.871,2.538,9.165l-19.844,161.2c-0.837,6.799-7.051,11.646-13.85,10.814l-57.788-7.114   c-4.116-0.502-7.854,2.416-8.36,6.527c-0.506,4.111,2.417,7.854,6.527,8.36l57.788,7.114c1.132,0.139,2.257,0.207,3.37,0.207   c10.13,0,19.269-5.628,24.004-14.207l20.537,1.365c-2.455,4.752-3.396,10.131-2.65,15.538c0.956,6.921,4.55,13.057,10.12,17.275   c4.593,3.479,10.075,5.31,15.739,5.31c1.205,0,2.418-0.083,3.633-0.25c0.078-0.011,0.154-0.026,0.231-0.038   c0.01,0.078,0.016,0.155,0.026,0.233c0.956,6.921,4.55,13.057,10.12,17.275c4.715,3.57,10.259,5.295,15.762,5.295   c1.29,0,2.577-0.105,3.851-0.293c0.864,6.728,4.315,13.119,10.137,17.528c4.715,3.571,10.259,5.295,15.762,5.295   c1.286,0,2.569-0.104,3.839-0.291c0.011,0.083,0.017,0.167,0.028,0.25c0.956,6.921,4.55,13.057,10.121,17.275   c4.593,3.478,10.075,5.31,15.738,5.31c1.206,0,2.419-0.083,3.633-0.25c6.922-0.956,13.057-4.55,17.275-10.12l15.514-20.485   C269.871,371.59,267.601,355.15,256.102,346.442z M137.073,331.246c-2.951,0.408-5.887-0.359-8.263-2.159   c-2.376-1.799-3.909-4.417-4.317-7.369c-0.408-2.953,0.359-5.887,2.159-8.264l5.713-7.544c1.799-2.376,4.417-3.909,7.369-4.317   c2.953-0.405,5.887,0.359,8.264,2.159c2.376,1.799,3.909,4.417,4.317,7.369c0.408,2.952-0.359,5.886-2.158,8.263l-5.714,7.544   C142.643,329.304,140.026,330.838,137.073,331.246z M158.559,351.617c-2.376-1.799-3.909-4.417-4.317-7.369   c-0.408-2.953,0.359-5.887,2.159-8.264l5.713-7.543c0,0,0.001-0.001,0.001-0.002l5.045-6.662c2.192-2.894,5.531-4.417,8.909-4.417   c2.347,0,4.712,0.736,6.723,2.259c4.905,3.715,5.874,10.727,2.159,15.633l-10.759,14.207   C170.477,354.364,163.464,355.332,158.559,351.617z M188.309,374.147c-2.376-1.799-3.909-4.417-4.317-7.37   c-0.408-2.951,0.358-5.885,2.156-8.26c0.001-0.001,0.001-0.002,0.002-0.003l10.759-14.208c0,0,0,0,0,0l3.904-5.155   c1.799-2.376,4.417-3.909,7.37-4.317c2.954-0.406,5.887,0.359,8.264,2.159c4.903,3.713,5.872,10.722,2.162,15.627l-14.667,19.367   c-0.001,0.001-0.002,0.002-0.002,0.003C200.224,376.893,193.215,377.862,188.309,374.147z M249.205,374.033l-15.514,20.485   c-1.799,2.376-4.417,3.909-7.369,4.317c-2.955,0.407-5.888-0.359-8.264-2.158s-3.909-4.417-4.317-7.369   c-0.408-2.953,0.359-5.887,2.159-8.264l14.664-19.362c0.003-0.003,0.005-0.007,0.008-0.01l0.843-1.113   c1.799-2.376,4.417-3.909,7.37-4.317c2.953-0.405,5.887,0.359,8.264,2.159C251.951,362.114,252.92,369.128,249.205,374.033z"/>
            <path d="M511.945,305.392c-0.506-4.11-4.245-7.029-8.36-6.527l-57.787,7.114c-6.809,0.837-13.013-4.015-13.85-10.814l-0.592-4.811   v0l-0.137-1.114l-19.114-155.275c-0.406-3.294,0.496-6.548,2.538-9.165c2.042-2.616,4.981-4.28,8.275-4.685l57.788-7.114   c4.111-0.506,7.033-4.249,6.527-8.36c-0.506-4.11-4.245-7.029-8.36-6.527l-57.788,7.114c-14.123,1.739-24.433,13.984-24.062,27.929   l-14.573,1.794l-45.126-25.395c-6.39-3.6-13.634-5.146-20.949-4.474c-0.015,0.001-0.03,0.005-0.045,0.006l-13.583,1.256   c-4.125,0.381-7.159,4.034-6.777,8.159c0.381,4.124,4.028,7.153,8.159,6.777l13.621-1.26c4.262-0.394,8.486,0.508,12.214,2.606   l46.787,26.33c1.464,0.966,3.246,1.408,5.048,1.187l16.926-2.083l12.415,100.843l4.293,34.874l-26.997,0.022   c-1.8,0.001-3.538,0.65-4.897,1.825l-2.089,1.626l-67.778-58.416c15.489-4.453,30.254-15.224,44.059-32.177   c2.615-3.212,2.132-7.936-1.08-10.552c-3.212-2.615-7.937-2.132-10.552,1.08c-15.43,18.95-31.654,28.704-48.222,28.99   c-24.137,0.454-41.872-19.56-42.035-19.747c-1.475-1.706-3.637-2.65-5.891-2.595c-2.254,0.064-4.359,1.14-5.733,2.927   l-20.147,26.22c-10.615,13.816-28.698,18.964-44.999,12.806l-2.151-0.813c-1.889-0.714-2.659-2.19-2.949-3.007   s-0.626-2.448,0.388-4.194l52.584-90.507c3.401-5.854,9.457-9.721,16.199-10.345l31.133-2.879c4.125-0.382,7.159-4.035,6.777-8.159   c-0.382-4.124-4.035-7.157-8.159-6.777l-31.133,2.879c-11.565,1.07-21.953,7.704-27.788,17.746l-52.584,90.507   c-2.96,5.096-3.526,11.203-1.551,16.756c1.975,5.553,6.27,9.931,11.782,12.013l2.151,0.813c6.344,2.396,12.881,3.553,19.331,3.553   c16.453-0.001,32.323-7.535,42.863-21.252l15.031-19.562c8.055,6.942,23.082,17.224,42.264,18.487l97.945,84.416   c1.761,1.517,2.826,3.629,2.998,5.947s-0.568,4.565-2.083,6.324l-3.817,4.427c-4.795,5.554-13.224,6.171-18.788,1.378   c-0.311-0.268-0.642-0.498-0.981-0.706l-25.426-21.924c-3.135-2.704-7.872-2.354-10.578,0.783   c-2.705,3.137-2.354,7.873,0.783,10.578l20.662,17.816l-9.425,10.938c-2.896,3.359-7.254,5.056-11.653,4.539   c-2.633-0.31-5.098-1.399-7.128-3.15c-0.036-0.031-0.075-0.057-0.111-0.087l-23.625-20.37c-3.137-2.704-7.872-2.354-10.578,0.783   c-2.705,3.137-2.354,7.873,0.783,10.578l18.054,15.567l-9.481,11.011c-2.897,3.36-7.265,5.057-11.665,4.539   c-4.115-0.486-7.841,2.46-8.324,6.573c-0.483,4.114,2.459,7.841,6.573,8.324c1.111,0.13,2.219,0.195,3.323,0.195   c8.19,0,16.029-3.547,21.457-9.84l10.136-11.771c2.769,1.32,5.746,2.183,8.834,2.546c9.36,1.1,18.613-2.505,24.767-9.643   l10.153-11.783c11.228,5.326,25.096,2.771,33.596-7.076l3.822-4.433c4.132-4.797,6.149-10.916,5.68-17.229   c-0.469-6.314-3.37-12.067-8.164-16.196l-6.156-5.305l22.501-0.019c2.459,12.96,13.864,22.299,26.915,22.299   c1.112,0,2.239-0.068,3.37-0.207l57.788-7.114C509.528,313.246,512.451,309.504,511.945,305.392z"/>
            <path d="M464.003,251.249c-12.13,0-21.999,9.868-21.999,21.998s9.869,21.999,21.999,21.999s21.998-9.869,21.998-21.999   S476.133,251.249,464.003,251.249z M464.003,280.246c-3.859,0-6.999-3.14-6.999-6.999s3.14-6.998,6.999-6.998   s6.998,3.139,6.998,6.998S467.862,280.246,464.003,280.246z"/>
            <path d="M69.189,273.247c0-12.13-9.868-21.998-21.998-21.998s-21.998,9.868-21.998,21.998s9.868,21.999,21.998,21.999   S69.189,285.377,69.189,273.247z M40.193,273.247c0-3.859,3.139-6.998,6.998-6.998s6.998,3.139,6.998,6.998   s-3.139,6.999-6.998,6.999S40.193,277.106,40.193,273.247z"/>
        </g>
    </symbol>

    <symbol id="icon3" viewBox="0 0 512 512">
        <g>
            <path d="M112,356c-4.418,0-8,3.582-8,8c0,4.411-3.589,8-8,8s-8-3.589-8-8s3.589-8,8-8c4.418,0,8-3.582,8-8s-3.582-8-8-8
		c-13.234,0-24,10.767-24,24s10.766,24,24,24s24-10.767,24-24C120,359.582,116.418,356,112,356z"/>
            <path d="M432,356c-4.418,0-8,3.582-8,8c0,4.411-3.589,8-8,8s-8-3.589-8-8s3.589-8,8-8c4.418,0,8-3.582,8-8s-3.582-8-8-8
		c-13.234,0-24,10.767-24,24s10.766,24,24,24s24-10.767,24-24C440,359.582,436.418,356,432,356z"/>
            <path d="M512,252c0-2.231-0.915-4.247-2.388-5.698c-3.421-9.455-10.352-17.394-19.723-22.08c-0.25-0.125-0.505-0.236-0.767-0.334
		l-26.439-9.925l-16.106-61.195c-0.023-0.088-0.047-0.176-0.074-0.263C441.389,135.456,425.992,124,408.191,124H352v-16
		c0-8.822-7.178-16-16-16H16c-8.822,0-16,7.178-16,16v224c0,8.822,7.178,16,16,16h26.341c-0.775,2.594-1.368,5.265-1.761,8H8
		c-4.418,0-8,3.582-8,8s3.582,8,8,8h32.581c3.895,27.102,27.258,48,55.419,48s51.525-20.898,55.419-48H168c0,13.233,10.766,24,24,24
		h48c13.234,0,24-10.767,24-24h96.581c3.895,27.102,27.258,48,55.419,48s51.525-20.898,55.419-48H504c4.418,0,8-3.582,8-8
		s-3.582-8-8-8h-32.581c-0.393-2.735-0.986-5.406-1.761-8H496c8.822,0,16-7.178,16-16v-72c0-1.88-0.131-3.735-0.383-5.558
		C511.864,253.672,512,252.852,512,252z M496,300h-8v-8h8V300z M489.899,244H352v-16h102.549l28.531,10.71
		C485.708,240.077,487.998,241.881,489.899,244z M408.191,140c10.638,0,19.846,6.819,22.951,16.982L445.622,212H352v-72H408.191z
		 M48.001,332H16v-40h248.004c4.418,0,8-3.582,8-8s-3.582-8-8-8H16V108h320v224h-96h-48h-47.998c-0.661,0-1.3,0.089-1.915,0.24
		C131.975,317.61,115.092,308,96,308c-19.092,0-35.974,9.61-46.087,24.24C49.299,332.089,48.661,332,48.001,332z M96,404
		c-22.056,0-40-17.944-40-40s17.944-40,40-40s40,17.944,40,40S118.056,404,96,404z M151.419,356c-0.393-2.735-0.986-5.406-1.761-8
		h19.718c-0.888,2.504-1.376,5.196-1.376,8H151.419z M248,372c0,4.411-3.589,8-8,8h-48c-4.411,0-8-3.589-8-8v-7.981
		c0-0.007,0.001-0.013,0.001-0.019S184,363.987,184,363.981V356c0-4.411,3.589-8,8-8h48c4.411,0,8,3.589,8,8V372z M262.624,348H344
		h18.341c-0.775,2.594-1.368,5.265-1.761,8H264C264,353.196,263.512,350.504,262.624,348z M416,404c-22.056,0-40-17.944-40-40
		s17.944-40,40-40s40,17.944,40,40S438.056,404,416,404z M464,332c-0.66,0-1.299,0.089-1.913,0.24
		C451.974,317.61,435.092,308,416,308s-35.974,9.61-46.087,24.24c-0.614-0.151-1.252-0.24-1.912-0.24h-16v-72h144v16h-8
		c-8.822,0-16,7.178-16,16v8c0,8.822,7.178,16,16,16h8v16H464z"/>
            <path d="M200,356c-2.11,0-4.17,0.859-5.66,2.34c-1.49,1.49-2.34,3.56-2.34,5.66c0,2.109,0.85,4.17,2.34,5.66
		c1.49,1.489,3.55,2.34,5.66,2.34c2.11,0,4.17-0.851,5.66-2.34c1.49-1.49,2.34-3.561,2.34-5.66c0-2.101-0.85-4.17-2.34-5.66
		C204.17,356.859,202.11,356,200,356z"/>
            <path d="M296.004,292H312c4.418,0,8-3.582,8-8s-3.582-8-8-8h-15.996c-4.418,0-8,3.582-8,8S291.585,292,296.004,292z"/>

        </g>
    </symbol>

    <symbol id="arrow-top" viewBox="0 0 512.01 512.01">
        <g>
            <path d="M505.755,358.256L271.088,123.589c-8.341-8.341-21.824-8.341-30.165,0L6.256,358.256c-8.341,8.341-8.341,21.824,0,30.165
			s21.824,8.341,30.165,0l219.584-219.584l219.584,219.584c4.16,4.16,9.621,6.251,15.083,6.251c5.462,0,10.923-2.091,15.083-6.251
			C514.096,380.08,514.096,366.597,505.755,358.256z"/>
        </g>
    </symbol>
</svg>